<svg width="164" height="37" viewBox="0 0 164 37" fill="none" xmlns="http://www.w3.org/2000/svg">
<g clip-path="url(#clip0_4368_8803)">
<path d="M11.5807 8.51579V35.3654C11.5816 35.5766 11.5387 35.7856 11.4548 35.9783C11.3709 36.1709 11.2481 36.3428 11.0945 36.4821C10.941 36.6215 10.7603 36.7251 10.5647 36.7859C10.3692 36.8469 10.1632 36.8636 9.96083 36.8352C7.2367 36.4308 4.74477 35.0243 2.94196 32.8733C1.13916 30.7224 0.146326 27.9714 0.145508 25.1246V10.1708C0.146347 9.34768 0.399842 8.54604 0.869449 7.88148C1.33906 7.21693 2.00053 6.72379 2.75851 6.47313C3.21445 6.32392 3.67704 6.24674 4.13298 6.41653C4.50769 6.55717 4.87577 6.71324 5.24218 6.87446C5.6086 7.03568 5.95181 7.13172 6.31325 7.2535C6.80069 7.425 7.2898 7.56907 7.78388 7.70628C8.27796 7.84349 8.81516 7.97726 9.33576 8.09388C9.85637 8.2105 10.4168 8.32027 10.9556 8.40946C11.1679 8.45062 11.3751 8.4832 11.5807 8.51579Z" fill="#CEEF08" stroke="#CEEF08" stroke-width="0.0436557" stroke-miterlimit="10"/>
<path d="M35.3612 10.7112V25.1178C35.362 27.9658 34.3699 30.7186 32.5669 32.8709C30.7639 35.0232 28.2712 36.4308 25.5459 36.8353C25.3436 36.8633 25.138 36.8459 24.9427 36.7848C24.7476 36.7237 24.5672 36.6201 24.4139 36.4808C24.2605 36.3416 24.1379 36.17 24.0541 35.9776C23.9702 35.7853 23.9272 35.5766 23.9277 35.3654V8.43872C25.0065 8.2512 26.0787 8.01281 27.1442 7.72353C27.8738 7.52114 28.5966 7.29476 29.3079 7.0375C29.923 6.8111 30.5331 6.47838 31.1931 6.37719C31.9026 6.26914 32.594 6.51954 33.2059 6.87971C33.8607 7.26617 34.405 7.82497 34.7836 8.49941C35.1621 9.17385 35.3615 9.93989 35.3612 10.7198V10.7112Z" fill="#CEEF08" stroke="#CEEF08" stroke-width="0.0436557" stroke-miterlimit="10"/>
<path d="M23.9264 8.43185V18.225L19.2111 25.3409C19.0547 25.5771 18.845 25.7705 18.6003 25.9041C18.3553 26.0375 18.0828 26.1073 17.8059 26.1073C17.5291 26.1073 17.2565 26.0375 17.0116 25.9041C16.7669 25.7705 16.5572 25.5771 16.4007 25.3409L11.581 18.0569V8.51589C13.5386 8.81374 15.5148 8.96163 17.4934 8.95839C19.648 8.96243 21.7993 8.78634 23.9264 8.43185Z" fill="#CEEF08" stroke="#CEEF08" stroke-width="0.0436557" stroke-miterlimit="10"/>
<path d="M7.49683 3.75608C8.04065 2.75276 9.44165 1.94495 10.2988 1.60022C12.0805 0.873464 13.9528 0.411518 15.8597 0.228161C18.8773 -0.0462513 22.1336 0.360223 24.9787 1.4836C26.2604 1.99813 28.9927 3.4628 28.0708 5.27735C27.822 5.74986 27.4061 6.10446 26.9103 6.26696C25.0749 6.88439 23.1483 7.10221 21.2234 7.21369C18.7004 7.36461 16.171 7.36461 13.648 7.21369C12.111 7.12107 10.5757 6.94784 9.09016 6.51737C8.57104 6.37131 8.10363 6.07358 7.74386 5.65982C7.15694 5.00637 7.17683 4.34778 7.49683 3.75608Z" fill="white" stroke="#CEEF08" stroke-width="0.0145519" stroke-miterlimit="10"/>
<path d="M44.2952 32.1606V27.8273H45.7926C46.7338 27.8273 47.2288 28.3285 47.2288 29.0802C47.2288 29.8503 46.7338 30.3209 45.7803 30.3209H44.9613V32.1606H44.2952ZM44.9675 29.777H45.7864C46.3059 29.777 46.5688 29.5692 46.5688 29.0802C46.5688 28.573 46.3243 28.3529 45.7926 28.359L44.9675 28.3713V29.777ZM52.6196 32.1667C52.3996 32.1667 52.2529 31.9895 52.2529 31.7694V31.6839C51.9717 32.1484 51.4033 32.3501 50.9266 32.3195C49.6615 32.2584 49.5759 30.327 51.3789 30.3454L52.2468 30.3576V30.1009C52.2468 29.6486 51.9962 29.4164 51.5256 29.4164C51.0672 29.4164 50.8105 29.6303 50.8105 30.0459L50.1749 30.0398C50.1749 29.2453 50.7983 28.9091 51.5439 28.9091C52.2957 28.9091 52.9068 29.2453 52.9068 30.0826V31.635C52.9068 31.7633 52.9863 31.8428 53.1085 31.8428H53.133V32.1667H52.6196ZM51.22 31.7755C51.6356 31.745 52.2468 31.4944 52.2468 30.9504V30.816L51.3972 30.8099C50.4377 30.7977 50.4377 31.8244 51.22 31.7755ZM56.7571 32.1667L55.7059 29.0313H56.3904L57.3561 31.9222L58.3401 29.0252H59.0307L57.7472 32.7473C57.5944 33.1996 57.1727 33.4991 56.696 33.4991H56.0726V32.894H56.6227C56.8671 32.894 57.081 32.7412 57.1605 32.509L57.2766 32.1667H56.7571ZM66.2076 32.1606V27.8334H68.7745V28.3957H66.8676V29.7098H68.4873V30.2782H66.8676V32.1606H66.2076ZM74.0665 32.1667C73.8464 32.1667 73.6998 31.9895 73.6998 31.7694V31.6839C73.4186 32.1484 72.8502 32.3501 72.3735 32.3195C71.1084 32.2584 71.0228 30.327 72.8258 30.3454L73.6937 30.3576V30.1009C73.6937 29.6486 73.4431 29.4164 72.9725 29.4164C72.5141 29.4164 72.2574 29.6303 72.2574 30.0459L71.6218 30.0398C71.6218 29.2453 72.2452 28.9091 72.9908 28.9091C73.7425 28.9091 74.3537 29.2453 74.3537 30.0826V31.635C74.3537 31.7633 74.4332 31.8428 74.5554 31.8428H74.5799V32.1667H74.0665ZM72.6669 31.7755C73.0825 31.745 73.6937 31.4944 73.6937 30.9504V30.816L72.8441 30.8099C71.8846 30.7977 71.8846 31.8244 72.6669 31.7755ZM77.4195 31.7205L77.8718 31.3233C78.1774 31.6105 78.4035 31.6961 78.8008 31.7022C79.1308 31.7083 79.5648 31.5983 79.4731 31.2988C79.3631 30.9993 78.9169 30.9504 78.5808 30.871C78.0613 30.7488 77.5234 30.5471 77.4623 29.9176C77.3767 29.2636 78.0246 28.8969 78.7763 28.8969C79.3997 28.8908 79.962 29.1352 80.1637 29.612L79.6076 29.8564C79.4486 29.5508 79.1186 29.4225 78.7519 29.4225C78.373 29.4164 78.0796 29.5753 78.1407 29.8687C78.1835 30.2231 78.6847 30.3148 79.0086 30.3943C79.522 30.5226 80.1148 30.6571 80.176 31.2499C80.2676 31.9222 79.5648 32.2584 78.8008 32.2584C78.2141 32.2584 77.774 32.0934 77.4195 31.7205ZM84.4039 31.6961H84.9661V32.1728H84.0494C83.756 32.1728 83.5604 31.9772 83.5604 31.6778V29.5142H82.9798V28.9947H83.5604V28.1757H84.2205V28.9947H84.9967V29.5142H84.2205V31.5127C84.2205 31.6227 84.2938 31.6961 84.4039 31.6961ZM87.8892 31.8489C87.8953 31.7144 87.9748 31.5188 88.262 31.5188C88.537 31.5188 88.6287 31.7083 88.6287 31.8428C88.6287 32.0261 88.4454 32.4173 88.372 32.5884H87.9992L88.1703 32.1361L88.1092 32.1178C87.9564 32.0872 87.8892 31.965 87.8892 31.8489ZM95.9936 32.1606V27.8273H96.6537V31.5922H98.5544V32.1606H95.9936ZM101.399 28.194C101.399 28.0718 101.484 27.8579 101.778 27.8579C102.077 27.8579 102.163 28.0657 102.163 28.194C102.163 28.3224 102.077 28.5302 101.778 28.5302C101.478 28.5302 101.399 28.3163 101.399 28.194ZM101.454 32.1606V28.9947H102.114V32.1606H101.454ZM106.417 32.1606L105.03 29.0191H105.733L106.741 31.311L107.749 29.0191H108.434L107.053 32.1606H106.417ZM113.503 31.3233H114.187C113.845 31.9467 113.417 32.2339 112.757 32.2339C111.822 32.2339 111.144 31.5739 111.144 30.5715C111.144 29.5631 111.804 28.8785 112.769 28.8785C113.998 28.8785 114.316 29.7098 114.309 30.7365H111.81C111.84 31.3599 112.286 31.7205 112.769 31.7205C113.093 31.7205 113.325 31.5677 113.503 31.3233ZM111.828 30.217H113.643C113.607 29.7648 113.307 29.3981 112.775 29.3981C112.25 29.3981 111.889 29.7892 111.828 30.217ZM121.308 31.4272L121.748 31.036C122.054 31.3783 122.457 31.7205 123.026 31.7205C123.435 31.7205 123.887 31.4883 123.887 31.0727C123.887 30.217 121.522 30.3637 121.522 28.9947C121.522 28.1574 122.286 27.7173 123.038 27.7112C123.625 27.7051 124.23 27.9007 124.633 28.4507L124.138 28.8174C123.942 28.5546 123.57 28.2735 123.038 28.2796C122.628 28.2796 122.213 28.518 122.213 28.9641C122.213 29.8381 124.572 29.6547 124.572 31.0238C124.572 31.7878 123.735 32.2828 122.995 32.2767C122.286 32.2706 121.773 32.0017 121.308 31.4272ZM127.502 28.194C127.502 28.0718 127.587 27.8579 127.88 27.8579C128.18 27.8579 128.266 28.0657 128.266 28.194C128.266 28.3224 128.18 28.5302 127.88 28.5302C127.581 28.5302 127.502 28.3163 127.502 28.194ZM127.557 32.1606V28.9947H128.217V32.1606H127.557ZM132.001 29.0252V29.5447C132.245 29.0986 132.587 28.8602 133.052 28.8541C133.608 28.8541 134.005 29.0802 134.219 29.5203C134.476 29.1169 134.885 28.8663 135.295 28.8663C136.248 28.8541 136.731 29.3736 136.731 30.486V32.1667H136.071V30.4921C136.071 29.832 135.833 29.4225 135.228 29.4225C134.555 29.4225 134.396 29.887 134.396 30.4676V32.1667H133.736V30.4615C133.736 29.7831 133.504 29.3919 132.875 29.3919C132.331 29.3919 132.001 29.8687 132.001 30.4921V32.1606L131.34 32.1545V29.0252H132.001ZM140.465 33.5113H139.805V29.0375H140.465V29.5997C140.685 29.1414 141.082 28.9213 141.504 28.8908C142.311 28.8358 143.215 29.4775 143.215 30.5899C143.215 31.6778 142.384 32.295 141.602 32.295C141.131 32.295 140.703 32.0628 140.465 31.6472V33.5113ZM140.471 30.5899C140.471 31.3538 140.966 31.745 141.474 31.7694C142.005 31.7939 142.549 31.4088 142.549 30.596C142.549 29.8748 142.048 29.4714 141.541 29.4408C141.009 29.4042 140.471 29.7709 140.471 30.5899ZM146.245 32.1606V27.5217H146.904V32.1606H146.245ZM152.194 31.3233H152.879C152.536 31.9467 152.108 32.2339 151.449 32.2339C150.513 32.2339 149.835 31.5739 149.835 30.5715C149.835 29.5631 150.496 28.8785 151.461 28.8785C152.689 28.8785 153.008 29.7098 153.002 30.7365H150.502C150.532 31.3599 150.978 31.7205 151.461 31.7205C151.785 31.7205 152.017 31.5677 152.194 31.3233ZM150.519 30.217H152.335C152.299 29.7648 151.999 29.3981 151.466 29.3981C150.941 29.3981 150.58 29.7892 150.519 30.217Z" fill="white"/>
<path d="M43.7183 24.6242V14.8357C43.7183 13.5435 44.0306 12.359 44.6552 11.2822C45.2797 10.2053 46.1735 9.35461 47.3365 8.73004C48.521 8.08394 49.9425 7.76089 51.6008 7.76089C52.3977 7.76089 53.1299 7.8578 53.7976 8.05164C54.4867 8.22393 55.1221 8.48237 55.7036 8.82696C56.2851 9.17155 56.7912 9.58075 57.2219 10.0546H57.2542C57.7065 9.58075 58.2234 9.17155 58.8049 8.82696C59.3864 8.48237 60.0217 8.22393 60.7109 8.05164C61.4001 7.8578 62.1431 7.76089 62.9399 7.76089C64.5983 7.76089 66.0089 8.08394 67.1719 8.73004C68.3564 9.35461 69.261 10.2053 69.8856 11.2822C70.5101 12.359 70.8224 13.5435 70.8224 14.8357V24.6242H66.3966V14.8357C66.3966 14.2327 66.2351 13.6835 65.912 13.1882C65.6105 12.6928 65.2013 12.2944 64.6844 11.9929C64.1675 11.6914 63.586 11.5406 62.9399 11.5406C62.3154 11.5406 61.7339 11.6914 61.1955 11.9929C60.6786 12.2944 60.2586 12.6928 59.9356 13.1882C59.634 13.6835 59.4833 14.2327 59.4833 14.8357V24.6242H55.0575V14.8357C55.0575 14.2327 54.8959 13.6835 54.5729 13.1882C54.2714 12.6928 53.8622 12.2944 53.3453 11.9929C52.8284 11.6914 52.2469 11.5406 51.6008 11.5406C50.9762 11.5406 50.3947 11.6914 49.8563 11.9929C49.3394 12.2944 48.9195 12.6928 48.5964 13.1882C48.2949 13.6835 48.1441 14.2327 48.1441 14.8357V24.6242H43.7183ZM82.9289 25.0119C81.2275 25.0119 79.7091 24.635 78.3738 23.8812C77.0386 23.1059 75.9833 22.0721 75.2079 20.7799C74.4326 19.4661 74.0449 18.0016 74.0449 16.3864C74.0449 14.7711 74.4326 13.3174 75.2079 12.0252C75.9833 10.7114 77.0386 9.67766 78.3738 8.92388C79.7091 8.14855 81.2275 7.76089 82.9289 7.76089C84.6303 7.76089 86.1486 8.14855 87.4839 8.92388C88.8192 9.67766 89.8745 10.7114 90.6498 12.0252C91.4251 13.3174 91.8128 14.7711 91.8128 16.3864C91.8128 18.0016 91.4251 19.4661 90.6498 20.7799C89.8745 22.0721 88.8192 23.1059 87.4839 23.8812C86.1486 24.635 84.6303 25.0119 82.9289 25.0119ZM82.9289 21.2322C83.8334 21.2322 84.6087 21.0168 85.2549 20.5861C85.9225 20.1553 86.4286 19.5738 86.7732 18.8416C87.1393 18.1093 87.3224 17.2909 87.3224 16.3864C87.3224 15.4818 87.1393 14.6634 86.7732 13.9312C86.4286 13.1989 85.9225 12.6174 85.2549 12.1867C84.6087 11.756 83.8334 11.5406 82.9289 11.5406C82.0243 11.5406 81.2382 11.756 80.5706 12.1867C79.9245 12.6174 79.4184 13.1989 79.0522 13.9312C78.7077 14.6634 78.5354 15.4818 78.5354 16.3864C78.5354 17.2909 78.7077 18.1093 79.0522 18.8416C79.4184 19.5738 79.9245 20.1553 80.5706 20.5861C81.2382 21.0168 82.0243 21.2322 82.9289 21.2322ZM95.0471 24.6242V15.1588C95.0471 13.802 95.3594 12.5636 95.984 11.4437C96.6301 10.3238 97.5562 9.42999 98.7622 8.76235C99.9683 8.09471 101.411 7.76089 103.091 7.76089C104.793 7.76089 106.236 8.09471 107.42 8.76235C108.626 9.42999 109.541 10.3238 110.166 11.4437C110.812 12.5636 111.135 13.802 111.135 15.1588V24.6242H106.709V15.1588C106.709 14.4911 106.548 13.8881 106.225 13.3497C105.902 12.7897 105.46 12.3482 104.9 12.0252C104.362 11.7021 103.759 11.5406 103.091 11.5406C102.423 11.5406 101.81 11.7021 101.25 12.0252C100.711 12.3482 100.281 12.7897 99.9575 13.3497C99.6345 13.8881 99.4729 14.4911 99.4729 15.1588V24.6242H95.0471ZM115.332 24.6242V8.14855H119.791V24.6242H115.332ZM117.562 6.17793C116.808 6.17793 116.151 5.90872 115.591 5.3703C115.053 4.81034 114.783 4.15347 114.783 3.39968C114.783 2.64589 115.053 1.99979 115.591 1.46137C116.151 0.901408 116.808 0.621429 117.562 0.621429C118.315 0.621429 118.961 0.901408 119.5 1.46137C120.06 1.99979 120.34 2.64589 120.34 3.39968C120.34 4.15347 120.06 4.81034 119.5 5.3703C118.961 5.90872 118.315 6.17793 117.562 6.17793ZM129.663 24.6242C128.199 24.6242 127.046 24.2042 126.206 23.3643C125.388 22.5244 124.979 21.3829 124.979 19.9399V4.01348H129.405V19.8107C129.405 20.0907 129.502 20.3384 129.695 20.5537C129.911 20.7476 130.158 20.8445 130.438 20.8445H134.024V24.6242H129.663ZM122.168 11.9283V8.14855H134.024V11.9283H122.168ZM143.279 25.0119C141.771 25.0119 140.457 24.6242 139.337 23.8489C138.217 23.0736 137.345 22.0398 136.721 20.7476C136.118 19.4338 135.816 17.9909 135.816 16.4187C135.816 14.8034 136.161 13.3389 136.85 12.0252C137.561 10.7114 138.573 9.67766 139.887 8.92388C141.2 8.14855 142.772 7.76089 144.603 7.76089C146.455 7.76089 148.016 8.14855 149.287 8.92388C150.558 9.6992 151.528 10.7437 152.194 12.0575C152.862 13.3712 153.197 14.825 153.197 16.4187V24.6242H148.77V21.8783H148.706C148.383 22.4598 147.974 22.9874 147.478 23.4612C147.005 23.935 146.423 24.3119 145.733 24.5919C145.045 24.8719 144.226 25.0119 143.279 25.0119ZM144.538 21.2322C145.4 21.2322 146.143 21.0168 146.768 20.5861C147.392 20.1553 147.866 19.5738 148.189 18.8416C148.533 18.0878 148.706 17.2586 148.706 16.3541C148.706 15.4495 148.533 14.6419 148.189 13.9312C147.866 13.1989 147.392 12.6174 146.768 12.1867C146.143 11.756 145.4 11.5406 144.538 11.5406C143.655 11.5406 142.891 11.756 142.245 12.1867C141.62 12.6174 141.136 13.1989 140.791 13.9312C140.468 14.6419 140.306 15.4495 140.306 16.3541C140.306 17.2586 140.468 18.0878 140.791 18.8416C141.136 19.5738 141.62 20.1553 142.245 20.5861C142.891 21.0168 143.655 21.2322 144.538 21.2322ZM159.584 25.0119C158.764 25.0119 158.054 24.7211 157.45 24.1396C156.87 23.5366 156.579 22.8259 156.579 22.0075C156.579 21.1891 156.87 20.4891 157.45 19.9076C158.054 19.3046 158.764 19.0031 159.584 19.0031C160.401 19.0031 161.101 19.3046 161.683 19.9076C162.286 20.4891 162.587 21.1891 162.587 22.0075C162.587 22.5459 162.447 23.052 162.168 23.5258C161.909 23.9781 161.554 24.3442 161.101 24.6242C160.649 24.8826 160.142 25.0119 159.584 25.0119Z" fill="white"/>
</g>
<defs>
<clipPath id="clip0_4368_8803">
<rect width="164" height="36.9618" fill="white"/>
</clipPath>
</defs>
</svg>
