<svg width="24" height="25" viewBox="0 0 24 25" fill="none" xmlns="http://www.w3.org/2000/svg">
<path d="M18 3.76185V3.76185C19.6569 3.76185 21 5.10499 21 6.76185L21 8.9047C21 9.23883 21 9.40589 20.9234 9.52786C20.8834 9.59146 20.8296 9.64524 20.766 9.6852C20.644 9.76184 20.477 9.76184 20.1429 9.76184L15 9.76184M18 3.76185V3.76185C16.3431 3.76185 15 5.10499 15 6.76185L15 9.76184M18 3.76185L7 3.76185C5.11438 3.76185 4.17157 3.76185 3.58579 4.34764C3 4.93342 3 5.87623 3 7.76185L3 21.7618L6 20.7618L9 21.7618L12 20.7618L15 21.7618L15 9.76184" stroke="white"/>
<path d="M7 7.76184L11 7.76184" stroke="white" stroke-linecap="round"/>
<path d="M8 11.7618H7" stroke="white" stroke-linecap="round"/>
<path d="M7 15.7618L10 15.7618" stroke="white" stroke-linecap="round"/>
</svg>
