<svg width="24" height="25" viewBox="0 0 24 25" fill="none" xmlns="http://www.w3.org/2000/svg">
<path d="M3.49988 9.63541C3.49988 8.8666 3.49988 8.4822 3.65187 8.1896C3.77995 7.94303 3.98099 7.74199 4.22756 7.61391C4.52016 7.46191 4.90457 7.46191 5.67338 7.46191H18.3264C19.0952 7.46191 19.4796 7.46191 19.7722 7.61391C20.0188 7.74199 20.2198 7.94303 20.3479 8.1896C20.4999 8.4822 20.4999 8.8666 20.4999 9.63541V17.2884C20.4999 18.0572 20.4999 18.4416 20.3479 18.7342C20.2198 18.9808 20.0188 19.1818 19.7722 19.3099C19.4796 19.4619 19.0952 19.4619 18.3264 19.4619H5.67338C4.90457 19.4619 4.52016 19.4619 4.22756 19.3099C3.98099 19.1818 3.77995 18.9808 3.65187 18.7342C3.49988 18.4416 3.49988 18.0572 3.49988 17.2884V9.63541Z" stroke="#010101" stroke-opacity="0.8" stroke-width="1.125"/>
<path d="M3.49988 11.4619L20.4999 11.4619" stroke="#010101" stroke-opacity="0.8" stroke-width="1.125" stroke-linecap="round"/>
<ellipse cx="6.5" cy="16.4619" rx="0.5" ry="0.5" fill="#010101" fill-opacity="0.8"/>
</svg>
