<svg width="24" height="25" viewBox="0 0 24 25" fill="none" xmlns="http://www.w3.org/2000/svg">
<path d="M3.49988 9.23557C3.49988 8.46676 3.49988 8.08235 3.65187 7.78976C3.77995 7.54319 3.98099 7.34215 4.22756 7.21406C4.52016 7.06207 4.90457 7.06207 5.67338 7.06207H18.3264C19.0952 7.06207 19.4796 7.06207 19.7722 7.21406C20.0188 7.34215 20.2198 7.54319 20.3479 7.78976C20.4999 8.08235 20.4999 8.46676 20.4999 9.23557V16.8886C20.4999 17.6574 20.4999 18.0418 20.3479 18.3344C20.2198 18.581 20.0188 18.782 19.7722 18.9101C19.4796 19.0621 19.0952 19.0621 18.3264 19.0621H5.67338C4.90457 19.0621 4.52016 19.0621 4.22756 18.9101C3.98099 18.782 3.77995 18.581 3.65187 18.3344C3.49988 18.0418 3.49988 17.6574 3.49988 16.8886V9.23557Z" stroke="white" stroke-width="1.125"/>
<path d="M3.49988 11.0618L20.4999 11.0618" stroke="white" stroke-width="1.125" stroke-linecap="round"/>
<ellipse cx="6.5" cy="16.0618" rx="0.5" ry="0.5" fill="white"/>
</svg>
