<svg width="24" height="25" viewBox="0 0 24 25" fill="none" xmlns="http://www.w3.org/2000/svg">
<path d="M19 6.56183H5C3.89543 6.56183 3 7.45726 3 8.56183V16.5618C3 17.6664 3.89543 18.5618 5 18.5618H19C20.1046 18.5618 21 17.6664 21 16.5618V8.56183C21 7.45726 20.1046 6.56183 19 6.56183Z" stroke="white"/>
<path d="M5 9.56183H8M16 15.5618H19" stroke="white" stroke-linecap="round"/>
<path d="M12 14.5618C13.1046 14.5618 14 13.6664 14 12.5618C14 11.4573 13.1046 10.5618 12 10.5618C10.8954 10.5618 10 11.4573 10 12.5618C10 13.6664 10.8954 14.5618 12 14.5618Z" stroke="white"/>
</svg>
