<svg width="24" height="25" viewBox="0 0 24 25" fill="none" xmlns="http://www.w3.org/2000/svg">
<path d="M11 3.56183L4 10.5618V19.5618C4 20.3575 4.31607 21.1205 4.87868 21.6831C5.44129 22.2458 6.20435 22.5618 7 22.5618H16C16.7956 22.5618 17.5587 22.2458 18.1213 21.6831C18.6839 21.1205 19 20.3575 19 19.5618V6.56183C19 5.76618 18.6839 5.00312 18.1213 4.44051C17.5587 3.8779 16.7956 3.56183 16 3.56183H11ZM11.41 4.56183H16C16.5304 4.56183 17.0391 4.77254 17.4142 5.14761C17.7893 5.52269 18 6.0314 18 6.56183V19.5618C18 20.0923 17.7893 20.601 17.4142 20.976C17.0391 21.3511 16.5304 21.5618 16 21.5618H7C6.46957 21.5618 5.96086 21.3511 5.58579 20.976C5.21071 20.601 5 20.0923 5 19.5618V10.9718L11.41 4.56183ZM8 11.5618V15.5618H9V11.5618H8ZM11 11.5618V13.5618H12V11.5618H11ZM14 11.5618V15.5618H15V11.5618H14ZM11 15.5618V19.5618H12V15.5618H11ZM8 17.5618V19.5618H9V17.5618H8ZM14 17.5618V19.5618H15V17.5618H14Z" fill="white"/>
</svg>
