<svg width="24" height="25" viewBox="0 0 24 25" fill="none" xmlns="http://www.w3.org/2000/svg">
<path d="M4 11.5618V19.5618C4 20.0923 4.21071 20.601 4.58579 20.976C4.96086 21.3511 5.46957 21.5618 6 21.5618H18C18.5304 21.5618 19.0391 21.3511 19.4142 20.976C19.7893 20.601 20 20.0923 20 19.5618V11.5618" stroke="white" stroke-linecap="round" stroke-linejoin="round"/>
<path d="M12 6.06183C12 5.13357 11.6313 4.24333 10.9749 3.58695C10.3185 2.93058 9.42826 2.56183 8.5 2.56183C7.83696 2.56183 7.20107 2.82522 6.73223 3.29406C6.26339 3.7629 6 4.39879 6 5.06183C6 5.72487 6.26339 6.36075 6.73223 6.8296C7.20107 7.29844 7.83696 7.56183 8.5 7.56183H12M12 6.06183V7.56183M12 6.06183C12 5.13357 12.3687 4.24333 13.0251 3.58695C13.6815 2.93058 14.5717 2.56183 15.5 2.56183C16.163 2.56183 16.7989 2.82522 17.2678 3.29406C17.7366 3.7629 18 4.39879 18 5.06183C18 5.39013 17.9353 5.71522 17.8097 6.01854C17.6841 6.32185 17.4999 6.59745 17.2678 6.8296C17.0356 7.06174 16.76 7.24589 16.4567 7.37153C16.1534 7.49716 15.8283 7.56183 15.5 7.56183H12" stroke="white" stroke-linejoin="round"/>
<path d="M12 11.5618V21.5618M3 7.56183H21V11.5618H3V7.56183Z" stroke="white" stroke-linecap="round" stroke-linejoin="round"/>
</svg>
