<svg width="24" height="25" viewBox="0 0 24 25" fill="none" xmlns="http://www.w3.org/2000/svg">
<path d="M4 11.9619V19.9619C4 20.4923 4.21071 21.0011 4.58579 21.3761C4.96086 21.7512 5.46957 21.9619 6 21.9619H18C18.5304 21.9619 19.0391 21.7512 19.4142 21.3761C19.7893 21.0011 20 20.4923 20 19.9619V11.9619" stroke="black" stroke-linecap="round" stroke-linejoin="round"/>
<path d="M12 6.46191C12 5.53366 11.6313 4.64342 10.9749 3.98704C10.3185 3.33066 9.42826 2.96191 8.5 2.96191C7.83696 2.96191 7.20107 3.22531 6.73223 3.69415C6.26339 4.16299 6 4.79887 6 5.46191C6 6.12496 6.26339 6.76084 6.73223 7.22968C7.20107 7.69852 7.83696 7.96191 8.5 7.96191H12M12 6.46191V7.96191M12 6.46191C12 5.53366 12.3687 4.64342 13.0251 3.98704C13.6815 3.33066 14.5717 2.96191 15.5 2.96191C16.163 2.96191 16.7989 3.22531 17.2678 3.69415C17.7366 4.16299 18 4.79887 18 5.46191C18 5.79022 17.9353 6.11531 17.8097 6.41862C17.6841 6.72194 17.4999 6.99753 17.2678 7.22968C17.0356 7.46183 16.76 7.64598 16.4567 7.77161C16.1534 7.89725 15.8283 7.96191 15.5 7.96191H12" stroke="black" stroke-linejoin="round"/>
<path d="M12 11.9619V21.9619M3 7.96191H21V11.9619H3V7.96191Z" stroke="#010101" stroke-opacity="0.8" stroke-linecap="round" stroke-linejoin="round"/>
</svg>
