<svg width="14" height="17" viewBox="0 0 14 17" fill="white" xmlns="http://www.w3.org/2000/svg">
<path fill-rule="evenodd" clip-rule="evenodd" d="M0.274 6.08787C1.78814e-07 6.68487 0 7.36387 0 8.72187V12.9619C0 14.8489 -5.96046e-08 15.7919 0.586 16.3769C1.117 16.9089 1.943 16.9569 3.5 16.9619V11.9619C3.5 11.4314 3.71071 10.9227 4.08579 10.5477C4.46086 10.1726 4.96957 9.96187 5.5 9.96187H8.5C9.03043 9.96187 9.53914 10.1726 9.91421 10.5477C10.2893 10.9227 10.5 11.4314 10.5 11.9619V16.9619C12.057 16.9569 12.883 16.9079 13.414 16.3759C14 15.7899 14 14.8479 14 12.9619V8.72187C14 7.36387 14 6.68487 13.726 6.08787C13.451 5.49087 12.936 5.04987 11.905 4.16587L10.905 3.30887C9.04 1.71187 8.11 0.911865 7 0.911865C5.89 0.911865 4.959 1.71087 3.095 3.30787L2.095 4.16487C1.065 5.04887 0.549 5.48987 0.275 6.08687M8.5 16.9619V11.9619H5.5V16.9619H8.5Z" fill="#fffff" fill-opacity="1"/>
</svg>
