<svg width="24" height="25" viewBox="0 0 24 25" fill="none" xmlns="http://www.w3.org/2000/svg">
<path d="M4.5 15.4619C4.5 13.4727 5.29018 11.5651 6.6967 10.1586C8.10322 8.75203 10.0109 7.96185 12 7.96185C13.9891 7.96185 15.8968 8.75203 17.3033 10.1586C18.7098 11.5651 19.5 13.4727 19.5 15.4619C19.5 17.451 18.7098 19.3586 17.3033 20.7652C15.8968 22.1717 13.9891 22.9619 12 22.9619C10.0109 22.9619 8.10322 22.1717 6.6967 20.7652C5.29018 19.3586 4.5 17.451 4.5 15.4619Z" stroke="white" stroke-linecap="round" stroke-linejoin="round"/>
<path d="M13.56 2.96185L10.999 7.96185M17.999 2.96185L15.178 8.56385M10.44 2.96185L12 5.55585M6 2.96185L8.821 8.46185M9 15.4619C9 13.8049 10.295 12.4619 11.893 12.4619H12.107C13.705 12.4619 15 13.8049 15 15.4619C15 17.1189 13.705 18.4619 12.107 18.4619H11.893C10.295 18.4619 9 17.1189 9 15.4619Z" stroke="white" stroke-linecap="round" stroke-linejoin="round"/>
</svg>
