<svg width="24" height="25" viewBox="0 0 24 25" fill="none" xmlns="http://www.w3.org/2000/svg">
<path  clip-rule="evenodd" d="M5.274 11.0879C5 11.6849 5 12.3639 5 13.7219V17.9619C5 19.8489 5 20.7919 5.586 21.3769C6.117 21.9089 6.943 21.9569 8.5 21.9619V16.9619C8.5 16.4314 8.71071 15.9227 9.08579 15.5477C9.46086 15.1726 9.96957 14.9619 10.5 14.9619H13.5C14.0304 14.9619 14.5391 15.1726 14.9142 15.5477C15.2893 15.9227 15.5 16.4314 15.5 16.9619V21.9619C17.057 21.9569 17.883 21.9079 18.414 21.3759C19 20.7899 19 19.8479 19 17.9619V13.7219C19 12.3639 19 11.6849 18.726 11.0879C18.451 10.4909 17.936 10.0499 16.905 9.16587L15.905 8.30887C14.04 6.71187 13.11 5.91187 12 5.91187C10.89 5.91187 9.959 6.71087 8.095 8.30787L7.095 9.16487C6.065 10.0489 5.549 10.4899 5.275 11.0869M13.5 21.9619V16.9619H10.5V21.9619H13.5Z" fill="#010101" fill-opacity="0.8"/>
</svg>
