<svg width="24" height="25" viewBox="0 0 24 25" fill="none" xmlns="http://www.w3.org/2000/svg">
<path fill-rule="evenodd" clip-rule="evenodd" d="M6 2.96191C5.20435 2.96191 4.44129 3.27798 3.87868 3.84059C3.31607 4.4032 3 5.16626 3 5.96191V19.9619C3 20.7576 3.31607 21.5206 3.87868 22.0832C4.44129 22.6458 5.20435 22.9619 6 22.9619H12C12.7956 22.9619 13.5587 22.6458 14.1213 22.0832C14.6839 21.5206 15 20.7576 15 19.9619V5.96191C15 5.16626 14.6839 4.4032 14.1213 3.84059C13.5587 3.27798 12.7956 2.96191 12 2.96191H6ZM16.293 8.25491C16.4805 8.06744 16.7348 7.96213 17 7.96213C17.2652 7.96213 17.5195 8.06744 17.707 8.25491L21.707 12.2549C21.8945 12.4424 21.9998 12.6967 21.9998 12.9619C21.9998 13.2271 21.8945 13.4814 21.707 13.6689L17.707 17.6689C17.5184 17.8511 17.2658 17.9519 17.0036 17.9496C16.7414 17.9473 16.4906 17.8421 16.3052 17.6567C16.1198 17.4713 16.0146 17.2205 16.0123 16.9583C16.01 16.6961 16.1108 16.4435 16.293 16.2549L18.586 13.9619H10C9.73478 13.9619 9.48043 13.8566 9.29289 13.669C9.10536 13.4815 9 13.2271 9 12.9619C9 12.6967 9.10536 12.4423 9.29289 12.2548C9.48043 12.0673 9.73478 11.9619 10 11.9619H18.586L16.293 9.66891C16.1055 9.48139 16.0002 9.22708 16.0002 8.96191C16.0002 8.69675 16.1055 8.44244 16.293 8.25491Z" fill="#D00416"/>
</svg>
