<svg width="24" height="25" viewBox="0 0 24 25" fill="none" xmlns="http://www.w3.org/2000/svg">
<path d="M19.59 16.0618L17.77 14.7618C18.07 13.6818 18.09 12.5118 17.77 11.3418L19.59 10.0618L18.14 7.56183L16.11 8.48183C15.32 7.68183 14.32 7.06183 13.15 6.77183L12.95 4.56183H10.05L9.85002 6.77183C8.68002 7.06183 7.68002 7.68183 6.89002 8.48183L4.86002 7.56183L3.41002 10.0618L5.23002 11.3418C4.91002 12.5118 4.93002 13.6818 5.23002 14.7618L3.41002 16.0618L4.86002 18.5618L6.89002 17.6318C7.68002 18.4218 8.68002 19.0218 9.85002 19.3318L10.05 21.5618H12.95L13.15 19.3318C14.32 19.0218 15.32 18.4218 16.11 17.6318L18.14 18.5618L19.59 16.0618ZM13.5 3.56183C13.77 3.56183 14 3.76183 14 4.02183L14.18 6.06183C14.94 6.34183 15.62 6.75183 16.23 7.24183L18.08 6.37183C18.31 6.25183 18.6 6.33183 18.74 6.56183L20.74 10.0618C20.88 10.2718 20.8 10.5618 20.58 10.7118L18.91 11.8818C19.04 12.6818 19.03 13.4718 18.91 14.2418L20.58 15.4118C20.8 15.5618 20.88 15.8518 20.74 16.0618L18.74 19.5618C18.6 19.7718 18.31 19.8518 18.08 19.7318L16.23 18.8718C15.62 19.3618 14.94 19.7618 14.18 20.0618L14 22.0618C14 22.3518 13.77 22.5618 13.5 22.5618H9.50002C9.36741 22.5618 9.24023 22.5092 9.14646 22.4154C9.0527 22.3216 9.00002 22.1944 9.00002 22.0618L8.82002 20.0618C8.06002 19.7618 7.38002 19.3618 6.77002 18.8718L4.92002 19.7318C4.69002 19.8518 4.40002 19.7718 4.26002 19.5618L2.26002 16.0618C2.12002 15.8518 2.20002 15.5618 2.42002 15.4118L4.09002 14.2418C3.97002 13.4718 3.96002 12.6818 4.09002 11.8818L2.42002 10.7118C2.20002 10.5618 2.12002 10.2718 2.26002 10.0618L4.26002 6.56183C4.40002 6.33183 4.69002 6.25183 4.92002 6.37183L6.77002 7.24183C7.38002 6.75183 8.06002 6.34183 8.82002 6.06183L9.00002 4.02183C9.00002 3.76183 9.23002 3.56183 9.50002 3.56183H13.5ZM11.5 9.56183C12.4283 9.56183 13.3185 9.93058 13.9749 10.587C14.6313 11.2433 15 12.1336 15 13.0618C15 13.9901 14.6313 14.8803 13.9749 15.5367C13.3185 16.1931 12.4283 16.5618 11.5 16.5618C10.5718 16.5618 9.68152 16.1931 9.02514 15.5367C8.36877 14.8803 8.00002 13.9901 8.00002 13.0618C8.00002 12.1336 8.36877 11.2433 9.02514 10.587C9.68152 9.93058 10.5718 9.56183 11.5 9.56183ZM11.5 10.5618C10.837 10.5618 10.2011 10.8252 9.73225 11.2941C9.26341 11.7629 9.00002 12.3988 9.00002 13.0618C9.00002 13.7249 9.26341 14.3608 9.73225 14.8296C10.2011 15.2984 10.837 15.5618 11.5 15.5618C12.1631 15.5618 12.7989 15.2984 13.2678 14.8296C13.7366 14.3608 14 13.7249 14 13.0618C14 12.3988 13.7366 11.7629 13.2678 11.2941C12.7989 10.8252 12.1631 10.5618 11.5 10.5618Z" fill="white"/>
</svg>
