<svg width="24" height="25" viewBox="0 0 24 25" fill="none" xmlns="http://www.w3.org/2000/svg">
<path d="M19 6.96191H5C3.89543 6.96191 3 7.85734 3 8.96191V16.9619C3 18.0665 3.89543 18.9619 5 18.9619H19C20.1046 18.9619 21 18.0665 21 16.9619V8.96191C21 7.85734 20.1046 6.96191 19 6.96191Z" stroke="black"/>
<path d="M5 9.96191H8M16 15.9619H19" stroke="black" stroke-linecap="round"/>
<path d="M12 14.9619C13.1046 14.9619 14 14.0665 14 12.9619C14 11.8573 13.1046 10.9619 12 10.9619C10.8954 10.9619 10 11.8573 10 12.9619C10 14.0665 10.8954 14.9619 12 14.9619Z" stroke="black"/>
</svg>
