<svg width="24" height="24" viewBox="0 0 24 24" fill="none" xmlns="http://www.w3.org/2000/svg">
<path d="M21.6298 13.5995C21.5817 13.5513 21.5214 13.5171 21.4553 13.5005C21.3893 13.484 21.32 13.4858 21.2548 13.5057C19.7598 13.9576 18.1702 13.9954 16.6554 13.6151C15.1405 13.2348 13.7573 12.4506 12.6529 11.3462C11.5486 10.2418 10.7646 8.85846 10.3844 7.3436C10.0043 5.82875 10.0422 4.23914 10.4942 2.74414C10.5143 2.67899 10.5162 2.6096 10.4998 2.54343C10.4833 2.47727 10.4492 2.41683 10.401 2.36862C10.3528 2.32042 10.2923 2.28626 10.2262 2.26984C10.16 2.25341 10.0906 2.25533 10.0255 2.27539C8.12437 2.8587 6.45578 4.02697 5.25734 5.61383C3.90331 7.4192 3.24595 9.65239 3.40592 11.9034C3.5659 14.1544 4.53248 16.2722 6.12821 17.868C7.72394 19.4637 9.84173 20.4303 12.0928 20.5902C14.3438 20.7502 16.577 20.0929 18.3823 18.7388C19.9687 17.5399 21.1363 15.871 21.7189 13.9698C21.7385 13.9057 21.7405 13.8376 21.7249 13.7725C21.7092 13.7073 21.6764 13.6476 21.6298 13.5995ZM17.9342 18.1435C16.2734 19.3934 14.217 20.0015 12.1435 19.8558C10.07 19.7102 8.1189 18.8206 6.64911 17.3508C5.17931 15.881 4.28975 13.9299 4.1441 11.8564C3.99845 9.78289 4.60651 7.72654 5.8564 6.06571C6.81881 4.79303 8.11202 3.80885 9.59515 3.22039C9.25566 4.75947 9.30931 6.35927 9.75114 7.87215C10.193 9.38503 11.0088 10.7622 12.1232 11.8767C13.2377 12.9911 14.6149 13.8069 16.1278 14.2488C17.6406 14.6906 19.2404 14.7443 20.7795 14.4048C20.1911 15.8879 19.2069 17.1811 17.9342 18.1435Z" fill="black"/>
</svg>
