<svg width="24" height="25" viewBox="0 0 24 25" fill="none" xmlns="http://www.w3.org/2000/svg">
<path d="M21 12.5618C21 13.7437 20.7672 14.914 20.3149 16.006C19.8626 17.0979 19.1997 18.0901 18.364 18.9258C17.5282 19.7615 16.5361 20.4245 15.4442 20.8767C14.3522 21.329 13.1819 21.5618 12 21.5618C10.8181 21.5618 9.64778 21.329 8.55585 20.8767C7.46392 20.4245 6.47177 19.7615 5.63604 18.9258C4.80031 18.0901 4.13738 17.0979 3.68508 16.006C3.23279 14.914 3 13.7437 3 12.5618C3 10.1749 3.94821 7.88569 5.63604 6.19787C7.32387 4.51004 9.61305 3.56183 12 3.56183C14.3869 3.56183 16.6761 4.51004 18.364 6.19787C20.0518 7.88569 21 10.1749 21 12.5618Z" stroke="white" stroke-linecap="round" stroke-linejoin="round"/>
<path d="M18 6.56183L14.475 10.0868M14.475 10.0868C15.823 11.4358 15.823 13.6888 14.475 15.0368M14.475 10.0868C13.127 8.73883 10.874 8.73883 9.525 10.0868M6 18.5618L9.525 15.0368M9.525 15.0368C8.177 13.6888 8.177 11.4358 9.525 10.0868M9.525 15.0368C10.873 16.3848 13.126 16.3848 14.475 15.0368M6 6.56183L9.525 10.0868M18 18.5618L14.475 15.0368" stroke="white" stroke-linecap="round" stroke-linejoin="round"/>
</svg>
