<svg width="24" height="25" viewBox="0 0 24 25" fill="none" xmlns="http://www.w3.org/2000/svg">
<path d="M18 3.96192V3.96192C19.6569 3.96192 21 5.30507 21 6.96192L21 9.10477C21 9.4389 21 9.60596 20.9234 9.72793C20.8834 9.79153 20.8296 9.84531 20.766 9.88528C20.644 9.96191 20.477 9.96191 20.1429 9.96191L15 9.96191M18 3.96192V3.96192C16.3431 3.96192 15 5.30507 15 6.96192L15 9.96191M18 3.96192L7 3.96192C5.11438 3.96192 4.17157 3.96192 3.58579 4.54771C3 5.13349 3 6.0763 3 7.96192L3 21.9619L6 20.9619L9 21.9619L12 20.9619L15 21.9619L15 9.96191" stroke="#010101" stroke-opacity="0.8"/>
<path d="M7 7.96191L11 7.96191" stroke="#010101" stroke-opacity="0.8" stroke-linecap="round"/>
<path d="M8 11.9619H7" stroke="#010101" stroke-opacity="0.8" stroke-linecap="round"/>
<path d="M7 15.9619L10 15.9619" stroke="#010101" stroke-opacity="0.8" stroke-linecap="round"/>
</svg>
