<svg width="24" height="25" viewBox="0 0 24 25" fill="none" xmlns="http://www.w3.org/2000/svg">
<path d="M19.59 16.4619L17.77 15.1619C18.07 14.0819 18.09 12.9119 17.77 11.7419L19.59 10.4619L18.14 7.96191L16.11 8.88191C15.32 8.08191 14.32 7.46191 13.15 7.17191L12.95 4.96191H10.05L9.85002 7.17191C8.68002 7.46191 7.68002 8.08191 6.89002 8.88191L4.86002 7.96191L3.41002 10.4619L5.23002 11.7419C4.91002 12.9119 4.93002 14.0819 5.23002 15.1619L3.41002 16.4619L4.86002 18.9619L6.89002 18.0319C7.68002 18.8219 8.68002 19.4219 9.85002 19.7319L10.05 21.9619H12.95L13.15 19.7319C14.32 19.4219 15.32 18.8219 16.11 18.0319L18.14 18.9619L19.59 16.4619ZM13.5 3.96191C13.77 3.96191 14 4.16191 14 4.42191L14.18 6.46191C14.94 6.74191 15.62 7.15191 16.23 7.64191L18.08 6.77191C18.31 6.65191 18.6 6.73191 18.74 6.96191L20.74 10.4619C20.88 10.6719 20.8 10.9619 20.58 11.1119L18.91 12.2819C19.04 13.0819 19.03 13.8719 18.91 14.6419L20.58 15.8119C20.8 15.9619 20.88 16.2519 20.74 16.4619L18.74 19.9619C18.6 20.1719 18.31 20.2519 18.08 20.1319L16.23 19.2719C15.62 19.7619 14.94 20.1619 14.18 20.4619L14 22.4619C14 22.7519 13.77 22.9619 13.5 22.9619H9.50002C9.36741 22.9619 9.24023 22.9092 9.14646 22.8155C9.0527 22.7217 9.00002 22.5945 9.00002 22.4619L8.82002 20.4619C8.06002 20.1619 7.38002 19.7619 6.77002 19.2719L4.92002 20.1319C4.69002 20.2519 4.40002 20.1719 4.26002 19.9619L2.26002 16.4619C2.12002 16.2519 2.20002 15.9619 2.42002 15.8119L4.09002 14.6419C3.97002 13.8719 3.96002 13.0819 4.09002 12.2819L2.42002 11.1119C2.20002 10.9619 2.12002 10.6719 2.26002 10.4619L4.26002 6.96191C4.40002 6.73191 4.69002 6.65191 4.92002 6.77191L6.77002 7.64191C7.38002 7.15191 8.06002 6.74191 8.82002 6.46191L9.00002 4.42191C9.00002 4.16191 9.23002 3.96191 9.50002 3.96191H13.5ZM11.5 9.96191C12.4283 9.96191 13.3185 10.3307 13.9749 10.987C14.6313 11.6434 15 12.5337 15 13.4619C15 14.3902 14.6313 15.2804 13.9749 15.9368C13.3185 16.5932 12.4283 16.9619 11.5 16.9619C10.5718 16.9619 9.68152 16.5932 9.02514 15.9368C8.36877 15.2804 8.00002 14.3902 8.00002 13.4619C8.00002 12.5337 8.36877 11.6434 9.02514 10.987C9.68152 10.3307 10.5718 9.96191 11.5 9.96191ZM11.5 10.9619C10.837 10.9619 10.2011 11.2253 9.73225 11.6941C9.26341 12.163 9.00002 12.7989 9.00002 13.4619C9.00002 14.125 9.26341 14.7608 9.73225 15.2297C10.2011 15.6985 10.837 15.9619 11.5 15.9619C12.1631 15.9619 12.7989 15.6985 13.2678 15.2297C13.7366 14.7608 14 14.125 14 13.4619C14 12.7989 13.7366 12.163 13.2678 11.6941C12.7989 11.2253 12.1631 10.9619 11.5 10.9619Z" fill="#010101" fill-opacity="0.8"/>
</svg>
