<svg width="24" height="25" viewBox="0 0 24 25" fill="none" xmlns="http://www.w3.org/2000/svg">
<path d="M11 3.96191L4 10.9619V19.9619C4 20.7576 4.31607 21.5206 4.87868 22.0832C5.44129 22.6458 6.20435 22.9619 7 22.9619H16C16.7956 22.9619 17.5587 22.6458 18.1213 22.0832C18.6839 21.5206 19 20.7576 19 19.9619V6.96191C19 6.16626 18.6839 5.4032 18.1213 4.84059C17.5587 4.27798 16.7956 3.96191 16 3.96191H11ZM11.41 4.96191H16C16.5304 4.96191 17.0391 5.17263 17.4142 5.5477C17.7893 5.92277 18 6.43148 18 6.96191V19.9619C18 20.4923 17.7893 21.0011 17.4142 21.3761C17.0391 21.7512 16.5304 21.9619 16 21.9619H7C6.46957 21.9619 5.96086 21.7512 5.58579 21.3761C5.21071 21.0011 5 20.4923 5 19.9619V11.3719L11.41 4.96191ZM8 11.9619V15.9619H9V11.9619H8ZM11 11.9619V13.9619H12V11.9619H11ZM14 11.9619V15.9619H15V11.9619H14ZM11 15.9619V19.9619H12V15.9619H11ZM8 17.9619V19.9619H9V17.9619H8ZM14 17.9619V19.9619H15V17.9619H14Z" fill="#010101" fill-opacity="0.8"/>
</svg>
