<svg width="24" height="25" viewBox="0 0 24 25" fill="none" xmlns="http://www.w3.org/2000/svg">
<path d="M8.117 17.5009C8.335 17.5009 8.51767 17.4269 8.665 17.2789C8.81167 17.1315 8.885 16.9485 8.885 16.7299C8.885 16.5112 8.811 16.3285 8.663 16.1819C8.515 16.0352 8.332 15.9619 8.114 15.9619C7.896 15.9619 7.71333 16.0359 7.566 16.1839C7.41867 16.3319 7.34533 16.5149 7.346 16.7329C7.34667 16.9509 7.42067 17.1332 7.568 17.2799C7.71533 17.4265 7.89833 17.5009 8.117 17.5009ZM8.117 13.7309C8.335 13.7309 8.51767 13.6572 8.665 13.5099C8.81167 13.3619 8.885 13.1785 8.885 12.9599C8.885 12.7412 8.811 12.5589 8.663 12.4129C8.515 12.2669 8.332 12.1935 8.114 12.1929C7.896 12.1922 7.71333 12.2659 7.566 12.4139C7.41867 12.5619 7.34533 12.7452 7.346 12.9639C7.34667 13.1825 7.42067 13.3649 7.568 13.5109C7.71533 13.6569 7.89833 13.7302 8.117 13.7309ZM8.117 9.96185C8.335 9.96185 8.51767 9.88819 8.665 9.74085C8.81167 9.59285 8.885 9.40952 8.885 9.19085C8.885 8.97219 8.811 8.78985 8.663 8.64385C8.515 8.49785 8.332 8.42452 8.114 8.42385C7.896 8.42319 7.71333 8.49685 7.566 8.64485C7.41933 8.79285 7.346 8.97585 7.346 9.19385C7.346 9.41185 7.42 9.59452 7.568 9.74185C7.716 9.88919 7.899 9.96252 8.117 9.96185ZM11.692 17.2319H16.077C16.219 17.2319 16.3377 17.1835 16.433 17.0869C16.5283 16.9902 16.5763 16.8715 16.577 16.7309C16.5777 16.5902 16.5297 16.4715 16.433 16.3749C16.3363 16.2782 16.2177 16.2302 16.077 16.2309H11.692C11.5507 16.2309 11.432 16.2789 11.336 16.3749C11.24 16.4709 11.192 16.5899 11.192 16.7319C11.192 16.8739 11.24 16.9925 11.336 17.0879C11.432 17.1832 11.5507 17.2309 11.692 17.2309M11.692 13.4619H16.077C16.219 13.4619 16.3377 13.4139 16.433 13.3179C16.5283 13.2219 16.5763 13.1029 16.577 12.9609C16.5777 12.8189 16.5297 12.7002 16.433 12.6049C16.3363 12.5095 16.2177 12.4619 16.077 12.4619H11.692C11.5507 12.4619 11.432 12.5099 11.336 12.6059C11.24 12.7019 11.192 12.8209 11.192 12.9629C11.192 13.1049 11.24 13.2235 11.336 13.3189C11.432 13.4142 11.5507 13.4619 11.692 13.4619ZM11.692 9.69185H16.077C16.219 9.69185 16.3377 9.64419 16.433 9.54885C16.529 9.45285 16.577 9.33385 16.577 9.19185C16.577 9.04985 16.529 8.93119 16.433 8.83585C16.337 8.74052 16.2183 8.69285 16.077 8.69285H11.692C11.5507 8.69285 11.432 8.74085 11.336 8.83685C11.24 8.93285 11.192 9.05185 11.192 9.19385C11.192 9.33585 11.24 9.45452 11.336 9.54985C11.432 9.64519 11.5507 9.69285 11.692 9.69285M5.616 20.9619C5.15533 20.9619 4.771 20.8079 4.463 20.4999C4.155 20.1919 4.00067 19.8072 4 19.3459V6.57785C4 6.11719 4.15433 5.73285 4.463 5.42485C4.77167 5.11685 5.156 4.96252 5.616 4.96185H18.385C18.845 4.96185 19.2293 5.11619 19.538 5.42485C19.8467 5.73352 20.0007 6.11785 20 6.57785V19.3469C20 19.8069 19.846 20.1912 19.538 20.4999C19.23 20.8085 18.8453 20.9625 18.384 20.9619H5.616ZM5.616 19.9619H18.385C18.5383 19.9619 18.6793 19.8979 18.808 19.7699C18.9367 19.6419 19.0007 19.5005 19 19.3459V6.57785C19 6.42385 18.936 6.28252 18.808 6.15385C18.68 6.02519 18.5387 5.96119 18.384 5.96185H5.616C5.462 5.96185 5.32067 6.02585 5.192 6.15385C5.06333 6.28185 4.99933 6.42319 5 6.57785V19.3469C5 19.5002 5.064 19.6412 5.192 19.7699C5.32 19.8985 5.461 19.9625 5.615 19.9619" fill="white"/>
</svg>
