<svg width="24" height="25" viewBox="0 0 24 25" fill="none" xmlns="http://www.w3.org/2000/svg">
<path d="M21 12.9619C21 14.1438 20.7672 15.3141 20.3149 16.4061C19.8626 17.498 19.1997 18.4901 18.364 19.3259C17.5282 20.1616 16.5361 20.8245 15.4442 21.2768C14.3522 21.7291 13.1819 21.9619 12 21.9619C10.8181 21.9619 9.64778 21.7291 8.55585 21.2768C7.46392 20.8245 6.47177 20.1616 5.63604 19.3259C4.80031 18.4901 4.13738 17.498 3.68508 16.4061C3.23279 15.3141 3 14.1438 3 12.9619C3 10.575 3.94821 8.28578 5.63604 6.59795C7.32387 4.91013 9.61305 3.96191 12 3.96191C14.3869 3.96191 16.6761 4.91013 18.364 6.59795C20.0518 8.28578 21 10.575 21 12.9619Z" stroke="#010101" stroke-opacity="0.8" stroke-linecap="round" stroke-linejoin="round"/>
<path d="M18 6.96191L14.475 10.4869M14.475 10.4869C15.823 11.8359 15.823 14.0889 14.475 15.4369M14.475 10.4869C13.127 9.13891 10.874 9.13891 9.525 10.4869M6 18.9619L9.525 15.4369M9.525 15.4369C8.177 14.0889 8.177 11.8359 9.525 10.4869M9.525 15.4369C10.873 16.7849 13.126 16.7849 14.475 15.4369M6 6.96191L9.525 10.4869M18 18.9619L14.475 15.4369" stroke="#010101" stroke-opacity="0.8" stroke-linecap="round" stroke-linejoin="round"/>
</svg>
