<svg width="24" height="25" viewBox="0 0 24 25" fill="none" xmlns="http://www.w3.org/2000/svg">
<path d="M19.5 9.58691H4.5C4.20163 9.58691 3.91548 9.70544 3.7045 9.91642C3.49353 10.1274 3.375 10.4135 3.375 10.7119V19.7119C3.375 20.0103 3.49353 20.2964 3.7045 20.5074C3.91548 20.7184 4.20163 20.8369 4.5 20.8369H19.5C19.7984 20.8369 20.0845 20.7184 20.2955 20.5074C20.5065 20.2964 20.625 20.0103 20.625 19.7119V10.7119C20.625 10.4135 20.5065 10.1274 20.2955 9.91642C20.0845 9.70544 19.7984 9.58691 19.5 9.58691ZM19.875 19.7119C19.875 19.8114 19.8355 19.9068 19.7652 19.9771C19.6948 20.0474 19.5995 20.0869 19.5 20.0869H4.5C4.40054 20.0869 4.30516 20.0474 4.23484 19.9771C4.16451 19.9068 4.125 19.8114 4.125 19.7119V10.7119C4.125 10.6125 4.16451 10.5171 4.23484 10.4467C4.30516 10.3764 4.40054 10.3369 4.5 10.3369H19.5C19.5995 10.3369 19.6948 10.3764 19.7652 10.4467C19.8355 10.5171 19.875 10.6125 19.875 10.7119V19.7119ZM4.875 6.96191C4.875 6.86246 4.91451 6.76708 4.98484 6.69675C5.05516 6.62642 5.15054 6.58691 5.25 6.58691H18.75C18.8495 6.58691 18.9448 6.62642 19.0152 6.69675C19.0855 6.76708 19.125 6.86246 19.125 6.96191C19.125 7.06137 19.0855 7.15675 19.0152 7.22708C18.9448 7.29741 18.8495 7.33691 18.75 7.33691H5.25C5.15054 7.33691 5.05516 7.29741 4.98484 7.22708C4.91451 7.15675 4.875 7.06137 4.875 6.96191ZM6.375 3.96191C6.375 3.86246 6.41451 3.76708 6.48483 3.69675C6.55516 3.62642 6.65054 3.58691 6.75 3.58691H17.25C17.3495 3.58691 17.4448 3.62642 17.5152 3.69675C17.5855 3.76708 17.625 3.86246 17.625 3.96191C17.625 4.06137 17.5855 4.15675 17.5152 4.22708C17.4448 4.29741 17.3495 4.33691 17.25 4.33691H6.75C6.65054 4.33691 6.55516 4.29741 6.48483 4.22708C6.41451 4.15675 6.375 4.06137 6.375 3.96191Z" fill="black"/>
</svg>
