<svg width="24" height="25" viewBox="0 0 24 25" fill="none" xmlns="http://www.w3.org/2000/svg">
<path d="M17.423 20.4619H14.423V19.4619H17.423V16.4619H18.423V19.4619H21.423V20.4619H18.423V23.4619H17.423V20.4619ZM4 20.9619V4.96191H20V14.9019C19.8413 14.8346 19.6817 14.7746 19.521 14.7219C19.361 14.6686 19.1873 14.6219 19 14.5819V5.96191H5V19.9619H12.423C12.423 20.1372 12.4317 20.3082 12.449 20.4749C12.4663 20.6416 12.4957 20.8039 12.537 20.9619H4ZM8.117 17.4999C8.335 17.4999 8.51733 17.4262 8.664 17.2789C8.81067 17.1316 8.884 16.9486 8.884 16.7299C8.884 16.5112 8.81033 16.3286 8.663 16.1819C8.51567 16.0352 8.33267 15.9619 8.114 15.9619C7.89533 15.9619 7.71267 16.0359 7.566 16.1839C7.41933 16.3319 7.346 16.5149 7.346 16.7329C7.346 16.9509 7.42 17.1332 7.568 17.2799C7.716 17.4266 7.899 17.4999 8.117 17.4999ZM8.117 13.7309C8.335 13.7309 8.51767 13.6572 8.665 13.5099C8.81167 13.3619 8.885 13.1786 8.885 12.9599C8.885 12.7412 8.811 12.5589 8.663 12.4129C8.515 12.2669 8.332 12.1936 8.114 12.1929C7.896 12.1922 7.71333 12.2659 7.566 12.4139C7.41867 12.5619 7.34533 12.7452 7.346 12.9639C7.34667 13.1826 7.42067 13.3649 7.568 13.5109C7.71533 13.6569 7.89833 13.7302 8.117 13.7309ZM8.117 9.96191C8.335 9.96191 8.51767 9.88825 8.665 9.74091C8.81167 9.59291 8.885 9.40958 8.885 9.19091C8.885 8.97225 8.811 8.78991 8.663 8.64391C8.515 8.49791 8.332 8.42458 8.114 8.42391C7.896 8.42325 7.71333 8.49691 7.566 8.64491C7.41933 8.79291 7.346 8.97591 7.346 9.19391C7.346 9.41191 7.42 9.59458 7.568 9.74191C7.716 9.88925 7.899 9.96258 8.117 9.96191ZM11.192 13.4619H16.577V12.4619H11.192V13.4619ZM11.192 9.69191H16.577V8.69191H11.192V9.69191ZM11.192 17.2319H13.196C13.2913 17.0406 13.3973 16.8646 13.514 16.7039C13.6307 16.5439 13.758 16.3862 13.896 16.2309H11.192V17.2319Z" fill="#010101" fill-opacity="0.8"/>
</svg>
