<svg width="24" height="25" viewBox="0 0 24 25" fill="none" xmlns="http://www.w3.org/2000/svg">
<circle cx="12" cy="8.96191" r="4" stroke="#010101" stroke-opacity="0.8" stroke-linecap="round"/>
<path fill-rule="evenodd" clip-rule="evenodd" d="M15.2759 16.9619C13.8972 16.5233 12.3896 16.3692 10.9067 16.5157C9.26616 16.6776 7.71472 17.2016 6.45048 18.0331C5.18613 18.8647 4.25374 19.9756 3.80174 21.2408C3.70884 21.5008 3.84433 21.787 4.10438 21.8799C4.36442 21.9728 4.65054 21.8373 4.74345 21.5772C5.11048 20.5499 5.88515 19.6019 7 18.8686C8.11495 18.1353 9.508 17.6586 11.0049 17.5108C11.5548 17.4565 12.1076 17.4477 12.6536 17.483C13.009 17.1593 13.4814 16.9619 14 16.9619L15.2759 16.9619Z" fill="#010101" fill-opacity="0.8"/>
<path d="M18 14.9619L18 22.9619" stroke="#010101" stroke-opacity="0.8" stroke-linecap="round"/>
<path d="M22 18.9619L14 18.9619" stroke="#010101" stroke-opacity="0.8" stroke-linecap="round"/>
</svg>
