<svg width="24" height="25" viewBox="0 0 24 25" fill="none" xmlns="http://www.w3.org/2000/svg">
<path d="M19.5 9.18683H4.5C4.20163 9.18683 3.91548 9.30536 3.7045 9.51633C3.49353 9.72731 3.375 10.0135 3.375 10.3118V19.3118C3.375 19.6102 3.49353 19.8963 3.7045 20.1073C3.91548 20.3183 4.20163 20.4368 4.5 20.4368H19.5C19.7984 20.4368 20.0845 20.3183 20.2955 20.1073C20.5065 19.8963 20.625 19.6102 20.625 19.3118V10.3118C20.625 10.0135 20.5065 9.72731 20.2955 9.51633C20.0845 9.30536 19.7984 9.18683 19.5 9.18683ZM19.875 19.3118C19.875 19.4113 19.8355 19.5067 19.7652 19.577C19.6948 19.6473 19.5995 19.6868 19.5 19.6868H4.5C4.40054 19.6868 4.30516 19.6473 4.23484 19.577C4.16451 19.5067 4.125 19.4113 4.125 19.3118V10.3118C4.125 10.2124 4.16451 10.117 4.23484 10.0467C4.30516 9.97634 4.40054 9.93683 4.5 9.93683H19.5C19.5995 9.93683 19.6948 9.97634 19.7652 10.0467C19.8355 10.117 19.875 10.2124 19.875 10.3118V19.3118ZM4.875 6.56183C4.875 6.46237 4.91451 6.36699 4.98484 6.29666C5.05516 6.22634 5.15054 6.18683 5.25 6.18683H18.75C18.8495 6.18683 18.9448 6.22634 19.0152 6.29666C19.0855 6.36699 19.125 6.46237 19.125 6.56183C19.125 6.66128 19.0855 6.75667 19.0152 6.82699C18.9448 6.89732 18.8495 6.93683 18.75 6.93683H5.25C5.15054 6.93683 5.05516 6.89732 4.98484 6.82699C4.91451 6.75667 4.875 6.66128 4.875 6.56183ZM6.375 3.56183C6.375 3.46237 6.41451 3.36699 6.48483 3.29666C6.55516 3.22634 6.65054 3.18683 6.75 3.18683H17.25C17.3495 3.18683 17.4448 3.22634 17.5152 3.29666C17.5855 3.36699 17.625 3.46237 17.625 3.56183C17.625 3.66128 17.5855 3.75667 17.5152 3.82699C17.4448 3.89732 17.3495 3.93683 17.25 3.93683H6.75C6.65054 3.93683 6.55516 3.89732 6.48483 3.82699C6.41451 3.75667 6.375 3.66128 6.375 3.56183Z" fill="white"/>
</svg>
